<svg width="20" height="30" viewBox="0 0 20 30" fill="none" xmlns="http://www.w3.org/2000/svg">
<path d="M5.27344 15.5859C6.0026 16.3151 6.88802 16.6797 7.92969 16.6797C8.97135 16.6797 9.85677 16.3151 10.5859 15.5859C11.3151 14.8568 11.6797 13.9714 11.6797 12.9297C11.6797 11.888 11.3151 11.0026 10.5859 10.2734C9.85677 9.54427 8.97135 9.17969 7.92969 9.17969C6.88802 9.17969 6.0026 9.54427 5.27344 10.2734C4.54427 11.0026 4.17969 11.888 4.17969 12.9297C4.17969 13.9714 4.54427 14.8568 5.27344 15.5859ZM12.9297 16.6797L17.0703 20.8203L15.8203 22.0703L11.6797 17.9297V17.2656L11.4453 17.0312C10.4557 17.8906 9.28385 18.3203 7.92969 18.3203C6.41927 18.3203 5.13021 17.7995 4.0625 16.7578C3.02083 15.7161 2.5 14.4401 2.5 12.9297C2.5 11.4193 3.02083 10.1432 4.0625 9.10156C5.13021 8.03385 6.41927 7.5 7.92969 7.5C9.4401 7.5 10.7161 8.03385 11.7578 9.10156C12.7995 10.1432 13.3203 11.4193 13.3203 12.9297C13.3203 13.4766 13.1901 14.1016 12.9297 14.8047C12.6693 15.4818 12.3698 16.0286 12.0312 16.4453L12.2656 16.6797H12.9297Z" fill="#2A2C1F"/>
<path d="M5.27344 15.5859L4.56633 16.293L5.27344 15.5859ZM10.5859 10.2734L9.87883 10.9805L10.5859 10.2734ZM12.9297 16.6797L13.6368 15.9726L13.3439 15.6797H12.9297V16.6797ZM17.0703 20.8203L17.7774 21.5274L18.4845 20.8203L17.7774 20.1132L17.0703 20.8203ZM15.8203 22.0703L15.1132 22.7774L15.8203 23.4845L16.5274 22.7774L15.8203 22.0703ZM11.6797 17.9297H10.6797V18.3439L10.9726 18.6368L11.6797 17.9297ZM11.6797 17.2656H12.6797V16.8514L12.3868 16.5585L11.6797 17.2656ZM11.4453 17.0312L12.1524 16.3241L11.4934 15.6651L10.7896 16.2762L11.4453 17.0312ZM4.0625 16.7578L3.35534 17.465L3.36418 17.4736L4.0625 16.7578ZM4.0625 9.10156L3.35539 8.39446L4.0625 9.10156ZM11.7578 9.10156L11.042 9.79994L11.0507 9.80867L11.7578 9.10156ZM12.9297 14.8047L13.8631 15.1637L13.8674 15.152L12.9297 14.8047ZM12.0312 16.4453L11.2551 15.8147L10.6864 16.5147L11.3241 17.1524L12.0312 16.4453ZM12.2656 16.6797L11.5585 17.3868L11.8514 17.6797H12.2656V16.6797ZM4.56633 16.293C5.48516 17.2119 6.62583 17.6797 7.92969 17.6797V15.6797C7.15021 15.6797 6.52005 15.4183 5.98054 14.8788L4.56633 16.293ZM7.92969 17.6797C9.23354 17.6797 10.3742 17.2119 11.293 16.293L9.87883 14.8788C9.33933 15.4183 8.70916 15.6797 7.92969 15.6797V17.6797ZM11.293 16.293C12.2119 15.3742 12.6797 14.2335 12.6797 12.9297H10.6797C10.6797 13.7092 10.4183 14.3393 9.87883 14.8788L11.293 16.293ZM12.6797 12.9297C12.6797 11.6258 12.2119 10.4852 11.293 9.56633L9.87883 10.9805C10.4183 11.52 10.6797 12.1502 10.6797 12.9297H12.6797ZM11.293 9.56633C10.3742 8.6475 9.23354 8.17969 7.92969 8.17969V10.1797C8.70916 10.1797 9.33933 10.441 9.87883 10.9805L11.293 9.56633ZM7.92969 8.17969C6.62583 8.17969 5.48516 8.6475 4.56633 9.56633L5.98054 10.9805C6.52005 10.441 7.15021 10.1797 7.92969 10.1797V8.17969ZM4.56633 9.56633C3.6475 10.4852 3.17969 11.6258 3.17969 12.9297H5.17969C5.17969 12.1502 5.44104 11.52 5.98054 10.9805L4.56633 9.56633ZM3.17969 12.9297C3.17969 14.2335 3.6475 15.3742 4.56633 16.293L5.98054 14.8788C5.44104 14.3393 5.17969 13.7092 5.17969 12.9297H3.17969ZM12.2226 17.3868L16.3632 21.5274L17.7774 20.1132L13.6368 15.9726L12.2226 17.3868ZM16.3632 20.1132L15.1132 21.3632L16.5274 22.7774L17.7774 21.5274L16.3632 20.1132ZM16.5274 21.3632L12.3868 17.2226L10.9726 18.6368L15.1132 22.7774L16.5274 21.3632ZM12.6797 17.9297V17.2656H10.6797V17.9297H12.6797ZM12.3868 16.5585L12.1524 16.3241L10.7382 17.7384L10.9726 17.9727L12.3868 16.5585ZM10.7896 16.2762C9.98846 16.972 9.05167 17.3203 7.92969 17.3203V19.3203C9.51604 19.3203 10.923 18.8093 12.101 17.7863L10.7896 16.2762ZM7.92969 17.3203C6.67654 17.3203 5.63914 16.8989 4.76082 16.042L3.36418 17.4736C4.62127 18.7 6.162 19.3203 7.92969 19.3203V17.3203ZM4.76961 16.0507C3.92072 15.2018 3.5 14.1824 3.5 12.9297H1.5C1.5 14.6978 2.12094 16.2305 3.35539 17.4649L4.76961 16.0507ZM3.5 12.9297C3.5 11.677 3.92072 10.6576 4.76961 9.80867L3.35539 8.39446C2.12094 9.62891 1.5 11.1616 1.5 12.9297H3.5ZM4.76961 9.80867C5.64972 8.92856 6.6844 8.5 7.92969 8.5V6.5C6.15414 6.5 4.6107 7.13915 3.35539 8.39446L4.76961 9.80867ZM7.92969 8.5C9.17443 8.5 10.1912 8.9278 11.042 9.79989L12.4736 8.40324C11.2411 7.13991 9.70578 6.5 7.92969 6.5V8.5ZM11.0507 9.80867C11.8996 10.6576 12.3203 11.677 12.3203 12.9297H14.3203C14.3203 11.1616 13.6994 9.62891 12.4649 8.39446L11.0507 9.80867ZM12.3203 12.9297C12.3203 13.323 12.2254 13.827 11.9919 14.4574L13.8674 15.152C14.1548 14.3761 14.3203 13.6301 14.3203 12.9297H12.3203ZM11.9963 14.4457C11.7614 15.0567 11.5086 15.5028 11.2551 15.8147L12.8074 17.0759C13.231 16.5545 13.5772 15.9069 13.863 15.1637L11.9963 14.4457ZM11.3241 17.1524L11.5585 17.3868L12.9727 15.9726L12.7384 15.7382L11.3241 17.1524ZM12.2656 17.6797H12.9297V15.6797H12.2656V17.6797Z" fill="black"/>
<path d="M5.27344 15.5859L4.56633 16.293L5.27344 15.5859ZM10.5859 10.2734L9.87883 10.9805L10.5859 10.2734ZM12.9297 16.6797L13.6368 15.9726L13.3439 15.6797H12.9297V16.6797ZM17.0703 20.8203L17.7774 21.5274L18.4845 20.8203L17.7774 20.1132L17.0703 20.8203ZM15.8203 22.0703L15.1132 22.7774L15.8203 23.4845L16.5274 22.7774L15.8203 22.0703ZM11.6797 17.9297H10.6797V18.3439L10.9726 18.6368L11.6797 17.9297ZM11.6797 17.2656H12.6797V16.8514L12.3868 16.5585L11.6797 17.2656ZM11.4453 17.0312L12.1524 16.3241L11.4934 15.6651L10.7896 16.2762L11.4453 17.0312ZM4.0625 16.7578L3.35534 17.465L3.36418 17.4736L4.0625 16.7578ZM4.0625 9.10156L3.35539 8.39446L4.0625 9.10156ZM11.7578 9.10156L11.042 9.79994L11.0507 9.80867L11.7578 9.10156ZM12.9297 14.8047L13.8631 15.1637L13.8674 15.152L12.9297 14.8047ZM12.0312 16.4453L11.2551 15.8147L10.6864 16.5147L11.3241 17.1524L12.0312 16.4453ZM12.2656 16.6797L11.5585 17.3868L11.8514 17.6797H12.2656V16.6797ZM4.56633 16.293C5.48516 17.2119 6.62583 17.6797 7.92969 17.6797V15.6797C7.15021 15.6797 6.52005 15.4183 5.98054 14.8788L4.56633 16.293ZM7.92969 17.6797C9.23354 17.6797 10.3742 17.2119 11.293 16.293L9.87883 14.8788C9.33933 15.4183 8.70916 15.6797 7.92969 15.6797V17.6797ZM11.293 16.293C12.2119 15.3742 12.6797 14.2335 12.6797 12.9297H10.6797C10.6797 13.7092 10.4183 14.3393 9.87883 14.8788L11.293 16.293ZM12.6797 12.9297C12.6797 11.6258 12.2119 10.4852 11.293 9.56633L9.87883 10.9805C10.4183 11.52 10.6797 12.1502 10.6797 12.9297H12.6797ZM11.293 9.56633C10.3742 8.6475 9.23354 8.17969 7.92969 8.17969V10.1797C8.70916 10.1797 9.33933 10.441 9.87883 10.9805L11.293 9.56633ZM7.92969 8.17969C6.62583 8.17969 5.48516 8.6475 4.56633 9.56633L5.98054 10.9805C6.52005 10.441 7.15021 10.1797 7.92969 10.1797V8.17969ZM4.56633 9.56633C3.6475 10.4852 3.17969 11.6258 3.17969 12.9297H5.17969C5.17969 12.1502 5.44104 11.52 5.98054 10.9805L4.56633 9.56633ZM3.17969 12.9297C3.17969 14.2335 3.6475 15.3742 4.56633 16.293L5.98054 14.8788C5.44104 14.3393 5.17969 13.7092 5.17969 12.9297H3.17969ZM12.2226 17.3868L16.3632 21.5274L17.7774 20.1132L13.6368 15.9726L12.2226 17.3868ZM16.3632 20.1132L15.1132 21.3632L16.5274 22.7774L17.7774 21.5274L16.3632 20.1132ZM16.5274 21.3632L12.3868 17.2226L10.9726 18.6368L15.1132 22.7774L16.5274 21.3632ZM12.6797 17.9297V17.2656H10.6797V17.9297H12.6797ZM12.3868 16.5585L12.1524 16.3241L10.7382 17.7384L10.9726 17.9727L12.3868 16.5585ZM10.7896 16.2762C9.98846 16.972 9.05167 17.3203 7.92969 17.3203V19.3203C9.51604 19.3203 10.923 18.8093 12.101 17.7863L10.7896 16.2762ZM7.92969 17.3203C6.67654 17.3203 5.63914 16.8989 4.76082 16.042L3.36418 17.4736C4.62127 18.7 6.162 19.3203 7.92969 19.3203V17.3203ZM4.76961 16.0507C3.92072 15.2018 3.5 14.1824 3.5 12.9297H1.5C1.5 14.6978 2.12094 16.2305 3.35539 17.4649L4.76961 16.0507ZM3.5 12.9297C3.5 11.677 3.92072 10.6576 4.76961 9.80867L3.35539 8.39446C2.12094 9.62891 1.5 11.1616 1.5 12.9297H3.5ZM4.76961 9.80867C5.64972 8.92856 6.6844 8.5 7.92969 8.5V6.5C6.15414 6.5 4.6107 7.13915 3.35539 8.39446L4.76961 9.80867ZM7.92969 8.5C9.17443 8.5 10.1912 8.9278 11.042 9.79989L12.4736 8.40324C11.2411 7.13991 9.70578 6.5 7.92969 6.5V8.5ZM11.0507 9.80867C11.8996 10.6576 12.3203 11.677 12.3203 12.9297H14.3203C14.3203 11.1616 13.6994 9.62891 12.4649 8.39446L11.0507 9.80867ZM12.3203 12.9297C12.3203 13.323 12.2254 13.827 11.9919 14.4574L13.8674 15.152C14.1548 14.3761 14.3203 13.6301 14.3203 12.9297H12.3203ZM11.9963 14.4457C11.7614 15.0567 11.5086 15.5028 11.2551 15.8147L12.8074 17.0759C13.231 16.5545 13.5772 15.9069 13.863 15.1637L11.9963 14.4457ZM11.3241 17.1524L11.5585 17.3868L12.9727 15.9726L12.7384 15.7382L11.3241 17.1524ZM12.2656 17.6797H12.9297V15.6797H12.2656V17.6797Z" fill="black" fill-opacity="0.2"/>
</svg>
